<?xml version="1.0" encoding="UTF-8"?>
<svg width="472px" height="403px" viewBox="0 0 472 403" version="1.1" xmlns="http://www.w3.org/2000/svg" xmlns:xlink="http://www.w3.org/1999/xlink">
    <!-- Generator: Sketch 47.1 (45422) - http://www.bohemiancoding.com/sketch -->
    <title>Group</title>
    <desc>Created with Sketch.</desc>
    <defs>
        <rect id="path-1" x="0" y="0.5" width="471.13164" height="402.5"></rect>
        <rect id="path-3" x="597.228637" y="40.1847575" width="69.2840647" height="2.77136259"></rect>
        <rect id="path-4" x="593.071594" y="42.9561201" width="69.2840647" height="2.77136259"></rect>
        <rect id="path-5" x="594.457275" y="103.926097" width="69.2840647" height="2.77136259"></rect>
        <rect id="path-6" x="597.228637" y="106.69746" width="69.2840647" height="2.77136259"></rect>
        <linearGradient x1="38.1652687%" y1="37.9729196%" x2="7.94611045%" y2="67.6143346%" id="linearGradient-7">
            <stop stop-color="#EFF8F7" stop-opacity="0" offset="0%"></stop>
            <stop stop-color="#E8F7F5" stop-opacity="0.5" offset="100%"></stop>
        </linearGradient>
    </defs>
    <g id="Welcome" stroke="none" stroke-width="1" fill="none" fill-rule="evenodd">
        <g id="Desktop" transform="translate(-516.000000, -513.000000)">
            <g id="Group" transform="translate(516.000000, 513.000000)">
                <mask id="mask-2" fill="white">
                    <use xlink:href="#path-1"></use>
                </mask>
                <use id="Mask" fill="#483E51" xlink:href="#path-1"></use>
                <g mask="url(#mask-2)">
                    <g transform="translate(-187.066975, 159.120092)">
                        <g id="Group-3" stroke-width="1" fill="none" fill-rule="evenodd" transform="translate(0.000000, 33.256351)">
                            <path d="M563.219893,0 C583.881191,5.42686758 595.821107,11.0512262 599.03964,16.8730757 C599.575175,17.8417781 608.718894,19.4617323 612.556526,26.9969211 C615.114948,32.0203803 633.409326,93.2292588 667.439662,210.623557 L0.458721417,209.707802 L563.219893,0 Z" id="Mask" fill="#FCF7B3"></path>
                        </g>
                        <rect id="Rectangle" fill="#523579" fill-rule="evenodd" x="243.879908" y="191.224018" width="90.0692841" height="34.6420323"></rect>
                        <rect id="Rectangle" fill="#523579" fill-rule="evenodd" x="243.879908" y="120.554273" width="59.5842956" height="59.5842956"></rect>
                        <rect id="Rectangle" fill="#523579" fill-rule="evenodd" x="267.43649" y="78.9838337" width="90.0692841" height="103.926097"></rect>
                        <rect id="Rectangle" fill="#E4D4FA" fill-rule="evenodd" transform="translate(367.205543, 130.946882) scale(-1, 1) translate(-367.205543, -130.946882) " x="356.120092" y="78.9838337" width="22.1709007" height="103.926097"></rect>
                        <polygon id="Rectangle" fill="#E4D4FA" fill-rule="evenodd" points="303.464203 121.766744 349.191686 85.9122402 349.191686 181.524249 303.464203 181.524249"></polygon>
                        <polygon id="Rectangle" fill="#957FC6" fill-rule="evenodd" points="243.879908 121.939954 303.509635 121.939954 347.806005 87.2979215 271.991065 87.2979215"></polygon>
                        <g id="Rectangle-2" fill="none" transform="translate(631.870670, 41.570439) rotate(60.000000) translate(-631.870670, -41.570439) ">
                            <use fill="#523579" fill-rule="evenodd" xlink:href="#path-3"></use>
                            <rect stroke="#523579" stroke-width="1" x="597.728637" y="40.6847575" width="68.2840647" height="1.77136259"></rect>
                        </g>
                        <g id="Rectangle-2" fill="none" transform="translate(627.713626, 44.341801) rotate(60.000000) translate(-627.713626, -44.341801) ">
                            <use fill="#523579" fill-rule="evenodd" xlink:href="#path-4"></use>
                            <rect stroke="#523579" stroke-width="1" x="593.571594" y="43.4561201" width="68.2840647" height="1.77136259"></rect>
                        </g>
                        <g id="Rectangle-2" fill="none" transform="translate(629.099307, 105.311778) scale(-1, 1) rotate(60.000000) translate(-629.099307, -105.311778) ">
                            <use fill="#957FC6" fill-rule="evenodd" xlink:href="#path-5"></use>
                            <rect stroke="#E4D4FA" stroke-width="1" x="594.957275" y="104.426097" width="68.2840647" height="1.77136259"></rect>
                        </g>
                        <g id="Rectangle-2" fill="none" transform="translate(631.870670, 108.083141) scale(-1, 1) rotate(60.000000) translate(-631.870670, -108.083141) ">
                            <use fill="#E4D4FA" fill-rule="evenodd" xlink:href="#path-6"></use>
                            <rect stroke="#E4D4FA" stroke-width="1" x="597.728637" y="107.19746" width="68.2840647" height="1.77136259"></rect>
                        </g>
                        <path d="M639.244779,83.1253773 C639.496766,83.1253773 655.255277,83.160253 655.499085,83.1253773 C658.455243,82.702511 655.499085,79.7402933 655.499085,76.2141406 C655.499085,72.7182876 656.707361,69.764365 653.788105,69.3029039 C653.519952,69.2605156 639.52302,69.3029039 639.244779,69.3029039 C635.937462,69.3029039 633.256351,72.39717 633.256351,76.2141406 C633.256351,80.0311112 635.937462,83.1253773 639.244779,83.1253773 Z" id="Oval-2" fill="#E4D4FA" fill-rule="evenodd"></path>
                        <circle id="Oval-2" fill="#957FC6" fill-rule="evenodd" cx="655.427252" cy="76.2124711" r="6.92840647"></circle>
                        <path d="M605.988428,144.095354 C606.240415,144.095354 621.998926,144.13023 622.242734,144.095354 C625.198892,143.672488 622.242734,140.71027 622.242734,137.184118 C622.242734,133.688264 623.45101,130.734342 620.531754,130.272881 C620.263601,130.230493 606.266669,130.272881 605.988428,130.272881 C602.681111,130.272881 600,133.367147 600,137.184118 C600,141.001088 602.681111,144.095354 605.988428,144.095354 Z" id="Oval-2" fill="#E4D4FA" fill-rule="evenodd"></path>
                        <circle id="Oval-2" fill="#957FC6" fill-rule="evenodd" cx="622.170901" cy="137.182448" r="6.92840647"></circle>
                        <path d="M591.685912,19.9331946 L600.621167,3.2675353 C604.063177,0.0333075583 607.312361,-0.799975405 610.368719,0.767686407 C613.425076,2.33534822 615.049668,5.66848007 615.242494,10.767082 L606.307239,29.0993072 L591.685912,19.9331946 Z" id="Path-6" fill="#957FC6" fill-rule="evenodd"></path>
                        <path d="M559.815242,32.8618969 L612.000608,59.5842956 C618.84459,42.3260798 614.852267,29.7999554 600.023639,22.0059225 C585.19501,14.2118895 571.792212,17.8305477 559.815242,32.8618969 Z" id="Path-5" fill="#E4D4FA" fill-rule="evenodd"></path>
                        <path d="M428.288584,27.2490918 C427.438429,33.1879962 431.689205,40.8237304 430.83905,46.7626347 C429.988895,52.7015391 434.23967,63.7309329 447.842153,67.9730075 C461.444635,72.215082 460.59448,79.8508162 458.894169,84.9413056 C457.193859,90.0317951 447.842153,98.5159442 447.842153,103.606434 C447.842153,107.000093 449.259078,117.181072 452.092928,134.14937 L541.359217,153.662913 C569.055575,156.782597 582.336984,163.998539 581.203444,175.310738 C579.503133,192.279036 609.371628,160.450233 591.51837,142.633519 C573.665112,124.816806 567.714026,122.271562 557.512165,99.3643591 C547.310303,76.4571566 548.160458,67.1245925 530.3072,60.3372733 C512.453943,53.549954 513.304098,54.3983689 503.102236,40.8237304 C492.900375,27.2490918 501.401926,17.9165278 485.248978,7.73554889 C469.096031,-2.44543002 454.643394,0.948229619 441.891067,8.5839638 C429.13874,16.219698 429.13874,21.3101874 428.288584,27.2490918 Z" id="Path-11" fill="#3A3A3A" fill-rule="evenodd"></path>
                        <path d="M586.143187,153.810624 L641.570439,153.810624 C632.332564,144.572748 623.094688,139.953811 613.856813,139.953811 C604.618938,139.953811 595.381062,144.572748 586.143187,153.810624 Z" id="Path-7" fill="#E4D4FA" fill-rule="evenodd"></path>
                        <path d="M615.450882,153.810624 L640.184758,153.810624 C631.08724,144.572748 621.989723,139.953811 612.892205,139.953811 C606.553493,139.953811 618.862451,140.877598 619.715343,146.882217 C620.283938,150.885296 618.862451,153.194765 615.450882,153.810624 Z" id="Path-7" fill="#957FC6" fill-rule="evenodd"></path>
                        <path d="M441.074331,29.8871494 L444.495766,47.64484 L444.495766,56.9464874 L448.77256,55.2552788 L453.049354,67.0937391 L463.31366,61.1745089 C467.509471,67.461195 469.790428,72.5348209 470.156531,76.3953866 C470.522634,80.2559522 469.097036,84.2021057 465.879737,88.2338469 C456.233066,98.0869179 450.815794,105.415489 449.627919,110.219559 C448.440044,115.023629 447.584685,133.063188 447.061842,164.338235 L434.23146,174.485487 L417.979642,132.205271 L406.004619,116.984394 L406.004619,130.514063 C410.967815,158.586611 416.955327,176.908037 423.967154,185.478343 C430.978982,194.048648 440.673048,194.894253 453.049354,188.015156 L465.024378,182.095926 L463.31366,182.94153 L468.445813,185.478343 L487.924479,183.917002 L531.742366,180.404717 L544.572748,154.190983 L523.188778,100.917912 L482.131554,76.3953866 C475.466883,56.5611208 469.194252,43.31332 463.31366,36.6519839 C457.433068,29.9906479 450.019958,27.735703 441.074331,29.8871494 Z" id="Path-9" fill="#F0D7D7" fill-rule="evenodd"></path>
                        <rect id="Rectangle" fill="#957FC6" fill-rule="evenodd" x="559.815242" y="153.810624" width="103.926097" height="23.556582"></rect>
                        <path d="M456.930949,97.5648854 C461.290997,94.114463 469.592719,107.622824 478.937454,106.942379 C483.995163,106.574098 493.593979,100.949733 507.733904,90.0692841 L523.956514,98.8521595 L545.586661,152.900624 L531.414503,181.96233 C541.640384,189.763763 548.129481,195.447093 550.881796,199.012319 C559.208102,209.797843 559.161937,218.61031 557.653028,222.029803 C555.395951,227.1448 519.282712,227.1448 449.313313,222.029803 C448.184774,206.11648 454.956006,194.465655 469.627009,187.077326 C484.298013,179.688998 476.962511,165.196507 447.620505,143.599855 C447.402829,126.951684 447.967098,116.153357 449.313313,111.204876 C451.288009,103.946192 453.025196,100.655791 456.930949,97.5648854 Z" id="Path-13" fill="#616161" fill-rule="evenodd"></path>
                        <rect id="Rectangle" fill="#523579" fill-rule="evenodd" x="221.709007" y="220.323326" width="446.189376" height="23.556582"></rect>
                        <path d="M479.445727,205.080831 L498.498845,205.080831 C499.464131,206.705423 500.330182,207.517719 501.096998,207.517719 C501.863814,207.517719 502.441181,206.705423 502.829099,205.080831 L509.757506,205.080831 C510.426523,211.274892 510.426523,215.877902 509.757506,218.889862 C509.088489,221.901822 507.645071,223.79718 505.427252,224.575934 L521.016166,224.575934 L518.418014,228.637413 L472.517321,228.637413 L465.588915,224.575934 L482.909931,224.575934 L477.713626,218.889862 C472.517321,218.889862 469.919169,216.994505 469.919169,213.203791 C469.919169,209.413076 473.094688,207.788485 479.445727,208.330015 L479.445727,205.080831 Z M475.981524,215.640679 C476.938138,215.640679 477.713626,214.913324 477.713626,214.016087 C477.713626,213.118849 476.938138,212.391495 475.981524,212.391495 C475.024911,212.391495 474.249423,213.118849 474.249423,214.016087 C474.249423,214.913324 475.024911,215.640679 475.981524,215.640679 Z" id="Combined-Shape" fill="#E4D4FA" fill-rule="evenodd"></path>
                        <polygon id="Path-8" fill="#523579" fill-rule="evenodd" points="278.52194 193.995381 278.52194 189.046519 294.872979 184.097658 294.872979 180.138568 340.483773 180.138568 340.483773 183.107885 360.277136 189.046519 360.277136 193.995381"></polygon>
                        <rect id="Rectangle" fill="#E4D4FA" fill-rule="evenodd" x="333.949192" y="191.224018" width="66.5127021" height="34.6420323"></rect>
                        <rect id="Rectangle" fill="#E4D4FA" fill-rule="evenodd" x="569.515012" y="200.923788" width="90.0692841" height="23.556582"></rect>
                        <rect id="Rectangle" fill="#957FC6" fill-rule="evenodd" x="554.272517" y="180.138568" width="113.625866" height="23.556582"></rect>
                        <rect id="Rectangle" fill="#523579" fill-rule="evenodd" x="569.515012" y="169.053118" width="103.926097" height="13.8568129"></rect>
                        <polygon id="Path-14" fill-opacity="0.5" fill="url(#linearGradient-7)" fill-rule="evenodd" points="400.461894 96.1352735 432.794294 14.6126391 450.554345 2.77136259 541.801386 107.232312 538.899215 100.689611 424.597348 133.025404"></polygon>
                        <polygon id="Path-12" fill="#BCBCBC" fill-rule="evenodd" points="400.461894 98.3833718 407.703196 137.182448 425.404157 137.182448 419.772033 98.3833718"></polygon>
                        <polygon id="Path-12" fill="#DCDCDC" fill-rule="evenodd" points="415.704388 98.3833718 415.704388 137.182448 422.632794 137.182448 417.78291 98.3833718"></polygon>
                        <path d="M526.817288,116.453823 L503.722839,156.304802 L488.571742,182.44901 L429.928571,129.310028 L429.07867,121.596305 L422.279461,118.167984 L422.279461,120.739225 L423.129362,122.453385 L423.129362,125.024626 L414.630352,124.167546 C411.583082,121.714616 409.59998,119.429069 408.681045,117.310903 C407.76211,115.192738 407.76211,112.90719 408.681045,110.45426 L397.632331,105.311778 C396.216525,106.972586 395.933225,110.115214 396.78243,114.739662 C398.056239,121.676334 399.373306,124.415922 405.281441,129.310028 C409.220198,132.572766 414.319604,134.286927 420.579659,134.45251 C450.277813,177.608973 473.791741,200.178756 491.121445,202.161858 C508.451148,204.144961 524.882568,186.146273 540.415704,148.165796 L526.817288,116.453823 Z" id="Path-10" fill="#FFEAEA" fill-rule="evenodd"></path>
                    </g>
                </g>
            </g>
        </g>
    </g>
</svg>